<?xml version="1.0" standalone="no"?>
<!DOCTYPE svg PUBLIC "-//W3C//DTD SVG 1.1//EN"
  "http://www.w3.org/Graphics/SVG/1.1/DTD/svg11.dtd">
<svg version="1.1" xmlns="http://www.w3.org/2000/svg" xmlns:xlink="http://www.w3.org/1999/xlink" width="1280" height="720" viewBox="-1040.8888888888887 -32 1889.7777777777776 1063" id="ccdiagram"><filter id="grayscale"><feColorMatrix type="matrix" values="0.3333 0.3333 0.3333 0 0 0.3333 0.3333 0.3333 0 0 0.3333 0.3333 0.3333 0 0 0 0 0 1 0"></feColorMatrix></filter><defs><style type="text/css">@import url('https://fonts.googleapis.com/css?family=Open+Sans:400,700|Inconsolata:400');</style></defs><g><g pointer-events="auto"><g opacity="1"><g><g><polygon points="-192 192, 320 488, -256 821, -752 535" fill="#000000" opacity="0.2"></polygon><polygon points="-192 185, 320 481, -256 814, -752 527" fill="#e6e7e8" stroke-width="0" stroke="#818181"></polygon></g></g></g><g opacity="1"><g><g><polygon points="-176 405, 112 572, -16 646, -304 479" fill="#000000" opacity="0.2"></polygon><polygon points="-176 398, 112 564, -16 638, -304 472" fill="#696868" stroke-width="0" stroke="#818181"></polygon></g></g></g></g><g pointer-events="auto"></g><g></g><g pointer-events="auto"></g><g></g><g pointer-events="auto"></g><g pointer-events="auto"></g><g pointer-events="none"></g><g pointer-events="auto"><g id="10407ba3-c748-406d-ac0b-be7902714ccb-a988247a-236e-454d-8cc8-e90b37d3db03"><g cursor="cell"><line x1="-280" y1="411" x2="-222" y2="445" stroke="red" stroke-width="8" opacity="0"></line><line x1="-280" y1="411" x2="-222" y2="445" stroke="#000000" stroke-width="2" stroke-linecap="round"></line></g></g><g id="dbe741bd-3c05-4313-b652-925f22c52abf-10407ba3-c748-406d-ac0b-be7902714ccb"><g cursor="cell"><line x1="-444" y1="608" x2="-353" y2="389" stroke="red" stroke-width="8" opacity="0"></line><line x1="-444" y1="608" x2="-353" y2="389" stroke="#000000" stroke-width="2" stroke-linecap="round"></line></g></g><g id="10407ba3-c748-406d-ac0b-be7902714ccb-ae723ed1-db79-4560-9c47-471e8d605883"><g cursor="cell"><line x1="-288" y1="352" x2="-128" y2="333" stroke="red" stroke-width="8" opacity="0"></line><line x1="-288" y1="352" x2="-128" y2="333" stroke="#000000" stroke-width="2" stroke-linecap="round"></line></g></g><g id="a988247a-236e-454d-8cc8-e90b37d3db03-d351b82c-a287-4797-9f2c-6cc9e64f105b"><g cursor="cell"><line x1="-104" y1="513" x2="-64" y2="537" stroke="red" stroke-width="8" opacity="0"></line><line x1="-104" y1="513" x2="-64" y2="537" stroke="#000000" stroke-width="2" stroke-linecap="round"></line></g></g><g id="ae723ed1-db79-4560-9c47-471e8d605883-aa748746-6518-4eb6-9bdd-33429dc632a2"><g cursor="cell"><line x1="-64" y1="333" x2="-48" y2="472" stroke="red" stroke-width="8" opacity="0"></line><line x1="-64" y1="333" x2="-48" y2="472" stroke="#000000" stroke-width="2" stroke-linecap="round"></line></g></g><g id="3ee4d48f-403f-416c-9d81-68eb558b1324-aa748746-6518-4eb6-9bdd-33429dc632a2"><g cursor="cell"><line x1="32" y1="426" x2="-48" y2="472" stroke="red" stroke-width="8" opacity="0"></line><line x1="32" y1="426" x2="-48" y2="472" stroke="#000000" stroke-width="2" stroke-linecap="round"></line></g></g><g id="dbe741bd-3c05-4313-b652-925f22c52abf-a988247a-236e-454d-8cc8-e90b37d3db03"><g cursor="cell"><line x1="-444" y1="608" x2="-177" y2="491" stroke="red" stroke-width="8" opacity="0"></line><line x1="-444" y1="608" x2="-177" y2="491" stroke="#000000" stroke-width="2" stroke-linecap="round"></line></g></g></g><g pointer-events="auto"><g opacity="1"><g id="ae723ed1-db79-4560-9c47-471e8d605883" transform="translate(0 0)"><svg x="-160" y="241" height="111" width="128" fill-rule="evenodd"><path d="M64 74v37l64-37V37L64 74z" fill="#b8b8bb"></path><path d="M0 37v37l64 37V74L0 37z" fill="#d2d2d4"></path><path d="M0 37L64 0l64 37-64 37L0 37z" fill="#ececed"></path><path d="M64 73.407l62.111-35.86.514.889-62.487 36.078h-.276L.743 38.072l.514-.89L64 73.407z" fill="#83838a"></path><path d="M63.486 74h1.027v36h-1.027z" fill="#83838a"></path><path d="M128 37v37l-64 37L0 74V37L64 0l64 37zM2.054 38.185v34.63L64 108.627l61.946-35.812v-34.63L64 2.373 2.054 38.185z" fill="#000000"></path></svg><svg x="-102" y="259" width="54" height="36" style="overflow: visible; cursor: default;"><rect transform="matrix(0.707 0.409 -0.707 0.409 0 0)" width="54" height="36" rx="5" ry="5" fill="#4286c5"></rect><text transform="matrix(0.707 0.409 -0.707 0.409 0 0)" font-family="Open Sans" text-anchor="middle" x="50%" font-weight="normal" font-size="20pt" y="80%" fill="#ffffff"><tspan>M4</tspan></text></svg></g></g><g opacity="1"><g id="3ee4d48f-403f-416c-9d81-68eb558b1324" transform="translate(0 0)"><svg x="0" y="306" height="137.556" width="128" viewBox="0 0 33.867 36.395"><g fill="#4286c5" font-family="sans-serif" font-size="3.175" stroke-width=".265" style="line-height: 0%;"><path d="M.187 12.17v14.365l16.586 9.577V21.747l-4.146-7.183-8.293-4.787z" fill="#d2d2d4" stroke-width=".264"></path><path d="M20.955 14.564l8.292-4.787 4.147 2.394v14.364l-16.587 9.576V21.748z" fill="#b8b8bb" stroke-width=".264"></path><path d="M4.334 9.777l8.292 4.788h8.293l8.293-4.788V4.988L20.919.2h-8.293L4.334 4.988zM12.856 14.565h8.294l-4.147 7.182z" fill="#ececed" stroke-width=".264"></path><path d="M4.394 4.806v4.789L.247 11.988zM29.212 9.595v-4.79l4.146 7.183z" fill="#d2d2d4" stroke-width=".264"></path><path d="M208.47 90.288l4.345-4.346 4.346 8.693z" fill="none" stroke="#83838a" stroke-width=".264" transform="scale(1.34943 .77909) rotate(45 195.366 -185.783)"></path><path d="M199.734 94.678l13.037 13.037h17.383L217.117 94.68l-8.692-4.347h-8.69zM212.819 85.928v-8.69h4.345l13.037 13.037.001 17.382-13.037-13.037zM199.734 90.333h8.69l4.347-4.346v-8.69l-4.347-4.347h-8.69l-4.346 4.346v8.69z" fill="none" stroke="#83838a" stroke-width=".257" transform="scale(1.34943 .77909) rotate(45 195.366 -185.783)"></path><path d="M212.855 107.631l-13.037-13.037-4.346-8.692v-8.69l4.346-4.347h8.69l8.692 4.346 13.038 13.038v17.383z" fill="none" stroke="#000000" stroke-width=".514" transform="scale(1.34943 .77909) rotate(45 195.366 -185.783)"></path><g font-size=".819" stroke-width=".258" style="line-height: 0%;"><g style="line-height: 0%;"><path d="M15.959 12.669l-2.387-1.379 3.854-3.771q.203-.203.886-.808.697-.606.967-.793-.405.187-1.38.562-.966.371-1.4.52L9.988 9.22l-2.38-1.374L14.97.682l2.063 1.191-4.132 3.846q-1.163 1.054-2.11 1.772.426-.199 1.373-.581.96-.383 1.535-.566l6.98-2.367 1.98 1.144-4.098 4.03q-.277.27-.899.792-.622.524-1.096.883.596-.266 1.529-.633.94-.37 1.548-.581l6.655-2.39 2.063 1.19z" font-family="Open Sans" font-size="14.515" stroke-width=".323" style="line-height: 1.25;"></path></g><g font-size="medium" style="line-height: 0%;"><path class="cls-2" d="M12.1 30.234l-7.223-4.17a.632.365 60 0 1-.447-.775V13.805a.632.365 60 0 1 .447-.258l5.574 3.218a.632.365 60 0 1 .304.32l1.65 2.883a.632.365 60 0 1 .124.423v9.595a.632.365 60 0 1-.429.248zm-6.794-4.888l6.365 3.675v-8.919l-1.399-2.428-4.966-2.868z" stroke-width=".067"></path><path class="cls-2" d="M12.1 21.155l-2.096-1.21a.632.365 60 0 1-.447-.775v-2.425l.858.495v1.925l1.667.963zM8.104 25.232l-.281-.162a1.024.591 60 0 1-.573-.63 1.694.978 60 0 1-.183-1.138c-.027-.934-.474-1.342-.474-1.342a.632.365 60 0 1 0-.965c.04.023.447.067.447-.841 0-.542.22-1.02.742-.738l.295.17v.996l-.143-.082a.759.438 60 0 0 0 .17 2.794 1.613 60 0 1-.447 1.332 2.788 1.61 60 0 1 .447 1.842.348.2 60 0 1 0 .093 1.302.752 60 0 0 0 .222l.193.11z" stroke-width=".067"></path><path class="cls-2" d="M9.307 25.927v-.991l.165.095a1.094.631 60 0 0 0-.165 2.794 1.613 60 0 1 .447-1.332 2.788 1.61 60 0 1-.447-1.842.695.401 60 0 1 0-.093 1.264.73 60 0 0 0-.217l-.192-.11v-.997l.281.163a1.043.602 60 0 1 .573.63 1.707.985 60 0 1 .183 1.137c0 .878.447 1.29.447 1.322a.632.365 60 0 1 .308.694.588.34 60 0 1-.317.286c-.036-.02-.447-.067-.447.847 0 .542-.22 1.02-.742.733z" stroke-width=".067"></path></g></g></g></svg></g></g><g opacity="1"><g id="10407ba3-c748-406d-ac0b-be7902714ccb" transform="translate(0 0)"><svg x="-398" y="307" height="108.05" width="123" viewBox="0 0 32.544 28.588"><path d="M10.115 6.02v14.218l7.873-4.318V1.474z" fill="#b8b8bb" fill-rule="evenodd" stroke="#83838a" stroke-width=".268"></path><path d="M.265 2.228l9.85 3.791v14.219l-9.85-8.531z" fill="#d2d2d4" fill-rule="evenodd" stroke="#83838a" stroke-width=".265"></path><path d="M10.115 6.02l7.873-4.546L3.548.332.265 2.228z" fill="#ececed" fill-rule="evenodd" stroke="#83838a" stroke-width=".265"></path><path d="M.265 11.707l9.85 8.53 7.873-4.317V1.474L3.392.271.265 2.076z" fill="none" fill-rule="evenodd" stroke="#000000" stroke-width=".529"></path><path d="M22.429 3.65L14.22 8.39l14.828 10.397 3.231-1.866z" fill="#ececed" fill-rule="evenodd" stroke="#83838a" stroke-width=".268"></path><path d="M14.22 8.39V22.61l14.777 5.687.051-9.509z" fill="#d2d2d4" fill-rule="evenodd" stroke="#83838a" stroke-width=".265"></path><path d="M29.048 18.787l3.231-1.866V26.4l-3.282 1.897z" fill="#b8b8bb" fill-rule="evenodd" stroke="#83838a" stroke-width=".265"></path><path d="M22.429 3.65L14.22 8.39V22.61l14.777 5.687 3.282-1.897v-9.478z" fill="none" fill-rule="evenodd" stroke="#000000" stroke-width=".529"></path><path d="M25.604 20.872c-.071-.975-.928-2.116-1.982-2.599a2.547 2.547 0 0 0-.398-.144c-.566-.91-1.446-1.74-2.441-2.195-1.501-.687-2.76-.293-3.057.872-1.062-.091-1.77.532-1.77 1.597 0 1.436 1.27 3.181 2.84 3.899l5.961 2.73c1.41.645 2.555.121 2.555-1.17 0-1.004-.695-2.2-1.708-2.99zm-.847 3.38l-5.962-2.73c-1.098-.502-1.987-1.723-1.987-2.729 0-.916.74-1.336 1.704-1.022v-.018c0-1.148 1.016-1.613 2.27-1.04.95.435 1.763 1.34 2.102 2.252.198-.065.456-.041.738.088.626.287 1.135.986 1.135 1.56a.657.657 0 0 1-.156.454c.052.019.105.042.156.065.94.43 1.704 1.479 1.704 2.34 0 .86-.763 1.21-1.704.78z" fill="#4286c5" stroke-width=".017"></path></svg></g></g><g opacity="1"><g id="a988247a-236e-454d-8cc8-e90b37d3db03" transform="translate(0 0)"><svg x="-222" y="409" height="108.05" width="123" viewBox="0 0 32.544 28.588"><path d="M10.115 6.02v14.218l7.873-4.318V1.474z" fill="#090909" fill-rule="evenodd" stroke="#a2a2a2" stroke-width=".268"></path><path d="M.265 2.228l9.85 3.791v14.219l-9.85-8.531z" fill="#232323" fill-rule="evenodd" stroke="#a2a2a2" stroke-width=".265"></path><path d="M10.115 6.02l7.873-4.546L3.548.332.265 2.228z" fill="#3c3c3c" fill-rule="evenodd" stroke="#a2a2a2" stroke-width=".265"></path><path d="M.265 11.707l9.85 8.53 7.873-4.317V1.474L3.392.271.265 2.076z" fill="none" fill-rule="evenodd" stroke="#000000" stroke-width=".529"></path><path d="M22.429 3.65L14.22 8.39l14.828 10.397 3.231-1.866z" fill="#3c3c3c" fill-rule="evenodd" stroke="#a2a2a2" stroke-width=".268"></path><path d="M14.22 8.39V22.61l14.777 5.687.051-9.509z" fill="#232323" fill-rule="evenodd" stroke="#a2a2a2" stroke-width=".265"></path><path d="M29.048 18.787l3.231-1.866V26.4l-3.282 1.897z" fill="#090909" fill-rule="evenodd" stroke="#a2a2a2" stroke-width=".265"></path><path d="M22.429 3.65L14.22 8.39V22.61l14.777 5.687 3.282-1.897v-9.478z" fill="none" fill-rule="evenodd" stroke="#000000" stroke-width=".529"></path><path d="M21.09 20.43q.163.375.048.64t-.44.265q-.326 0-.671-.265-.346-.265-.509-.64-.162-.374-.047-.639t.44-.265q.326 0 .671.265.346.265.509.64zm1.573-1.808q.08.184.022.318-.059.134-.218.134-.16 0-.335-.134-.176-.135-.255-.318-.082-.187-.024-.32.058-.132.22-.132.163 0 .336.132.173.133.254.32zm1.573 3.617q.08.184.021.318-.058.134-.218.134t-.335-.134q-.175-.135-.255-.318-.081-.187-.023-.32.057-.132.22-.132t.335.132q.173.133.255.32zm-1.826-1.487l-.284-.654q-.016-.035-.052-.068-.036-.034-.065-.038l-.513-.084q-.088-.124-.215-.269.03-.17.1-.406.006-.035-.01-.07-.018-.043-.05-.068-.117-.106-.39-.316-.275-.21-.333-.21-.034 0-.054.025l-.215.317q-.143-.067-.284-.11-.2-.38-.309-.547-.058-.085-.129-.085h-.571q-.034 0-.05.027-.016.026-.004.062l.164.54q-.089.036-.182.11l-.5-.315q-.032-.024-.071-.024-.034 0-.053.028-.238.47-.196.565.014.032.05.067.053.05.208.187.155.138.238.216-.003.155.018.29l-.43.084q-.029.004-.038.034-.008.03.008.069l.285.653q.015.036.051.069.036.033.065.037l.513.085q.088.124.215.268-.03.17-.1.407-.005.038.01.07.018.043.052.07.113.107.388.315.275.208.333.209.034 0 .054-.025l.215-.318q.132.064.286.113.2.382.307.544.058.085.129.085h.571q.034 0 .05-.027.016-.026.004-.062l-.164-.54q.089-.035.183-.11l.499.315q.035.024.072.024.033 0 .052-.028.238-.47.196-.565-.014-.032-.05-.067-.062-.057-.212-.19-.15-.135-.23-.213-.004-.169-.022-.29l.431-.08q.028-.007.036-.038.008-.03-.008-.068zm1.147-1.883l-.215-.494q-.025-.057-.505-.11-.079-.095-.172-.183-.017-.4-.056-.488-.006-.014-.023-.024-.483-.251-.49-.251-.024 0-.069.166-.044.166-.055.24-.064-.007-.095-.007t-.09.007q-.075-.074-.264-.24-.188-.166-.213-.166-.006 0-.272.25-.008.011-.002.025.039.088.369.488-.017.088-.012.183-.435.053-.41.11l.215.494q.024.057.505.11.084.102.172.184.017.399.055.487.006.014.023.025l.138.07.234.12q.11.057.117.057.024 0 .07-.164.045-.164.056-.239.064.007.095.007.03 0 .089-.007.266.251.455.396l.021.007q.012 0 .273-.247.008-.01.002-.025-.038-.088-.368-.487.017-.082.012-.184.435-.053.41-.11zm1.572 3.617l-.215-.494q-.024-.057-.505-.11-.078-.095-.172-.184-.017-.399-.055-.487-.006-.014-.023-.025-.484-.25-.49-.25-.025 0-.069.165-.044.166-.055.24-.065-.006-.096-.006-.03 0-.089.007-.075-.075-.264-.24-.189-.166-.213-.166-.006 0-.272.25-.008.01-.002.025.038.088.369.487-.017.088-.013.184-.434.053-.41.11l.215.494q.025.057.505.11.085.102.173.183.016.4.055.488.006.014.023.024l.138.07.233.121q.111.057.117.057.025 0 .07-.165.045-.164.056-.238.065.007.095.007.031 0 .09-.007.265.25.454.396l.022.007q.012 0 .273-.248.008-.01.002-.024-.038-.088-.369-.488.017-.08.013-.183.434-.053.41-.11z" fill="#f4b934" stroke-width=".265"></path></svg></g></g><g opacity="1"><g id="d351b82c-a287-4797-9f2c-6cc9e64f105b" transform="translate(0 0)"><g><polygon points="0 500, 64 537, 0 574, -64 537" fill="#ececed"></polygon><polygon points="-64 574, 0 611, 0 574, -64 537" fill="#d2d2d4" stroke="#83838a"></polygon><polygon points="0 611, 64 574, 64 537, 0 574" fill="#b8b8bb" stroke="#83838a"></polygon><polygon points="0 500, -64 537, -64 574, 0 611, 64 574, 64 537" fill="none" stroke="#000000" stroke-width="2"></polygon></g></g></g><g opacity="1"><g id="dbe741bd-3c05-4313-b652-925f22c52abf" transform="translate(0 0)"><svg x="-504" y="543" height="95.068" width="63" viewBox="0 0 16.669 25.153"><path d="M16.668 22.903q0 1.64-.864 2.091-.865.451-2.297-.376L3.161 18.645q-1.433-.827-2.297-2.276Q.001 14.921 0 13.28q0-.723.042-1.39.042-.666.166-1.394.124-.727.313-1.302.19-.575.51-1.039.319-.464.733-.683.414-.22 1.012-.147.598.073 1.32.49.107.06.497.58.391.52.882 1.165.491.646 1.279 1.394.788.75 1.58 1.207.793.458 1.58.618.788.161 1.28.083.49-.079.881-.147.39-.069.497-.007.722.416 1.32 1.035.598.619 1.013 1.315.414.697.734 1.531t.509 1.627q.19.793.313 1.664.124.872.166 1.586.042.713.042 1.438zM12.88 8.51q0 2.173-1.332 2.942-1.332.769-3.214-.318-1.882-1.086-3.214-3.393Q3.79 5.434 3.79 3.26q0-2.173 1.331-2.942 1.332-.77 3.214.317t3.214 3.394q1.332 2.306 1.332 4.48z" fill="#000" stroke="#000000" stroke-width=".268"></path></svg></g></g></g><g pointer-events="auto"></g><g pointer-events="auto"><g opacity="1"><g id="2187eecd-5f6e-4ead-9680-283261cbae75" transform="translate(0 0)"><svg x="-16" y="546" overflow="visible"><g transform="scale(0.8944271909999159) matrix(0.707 0.409 -0.707 0.409 0 0)"><circle cx="0" cy="0" fill="#000000" r="23"></circle><svg width="21" height="32" x="-10.5" y="-16" style="fill: rgb(255, 255, 255);"><svg xmlns="http://www.w3.org/2000/svg" width="21" height="32" viewBox="0 0 21 32"><path d="M5.714 13.714h9.143v-3.429c0-2.518-2.054-4.571-4.571-4.571s-4.571 2.054-4.571 4.571v3.429zm14.857 1.715v10.286c0 .946-.768 1.714-1.714 1.714H1.714A1.715 1.715 0 010 25.715V15.429c0-.946.768-1.714 1.714-1.714h.571v-3.429c0-4.393 3.607-8 8-8s8 3.607 8 8v3.429h.571c.946 0 1.714.768 1.714 1.714z"></path></svg></svg></g></svg></g></g></g><g pointer-events="auto"><g opacity="1"><g id="2186137e-9a6e-4109-b672-df2977ed8294" transform="translate(0 0)"><svg x="-176" y="268" overflow="visible"><text stroke="#ffffff" stroke-width="4" font-family="Open Sans" y="30.799999999999997" font-size="20pt" fill="#000000" font-weight="bold" transform="" xml:space="preserve"><tspan x="8" dy="0">Web Node</tspan></text><text font-family="Open Sans" y="30.799999999999997" font-size="20pt" fill="#000000" font-weight="bold" transform="" xml:space="preserve"><tspan x="8" dy="0">Web Node</tspan></text></svg></g></g><g opacity="1"><g id="c7b17aa3-daa9-4a8d-93d1-a6878e357e59" transform="translate(0 0)"><svg x="-640" y="592" overflow="visible"><text stroke="#ffffff" stroke-width="4" font-family="Open Sans" y="36.5" font-size="25pt" fill="#000000" font-weight="bold" transform="matrix(0.707 0.409 -0.707 0.409 0 0)" xml:space="preserve"><tspan x="8" dy="0">Client Application</tspan></text><text font-family="Open Sans" y="36.5" font-size="25pt" fill="#000000" font-weight="bold" transform="matrix(0.707 0.409 -0.707 0.409 0 0)" xml:space="preserve"><tspan x="8" dy="0">Client Application</tspan></text></svg></g></g><g opacity="1"><g id="8c7293c2-9109-4a81-b46c-e211fe25a46f" transform="translate(0 0)"><svg x="-416" y="629" overflow="visible"><text stroke="#ffffff" stroke-width="4" font-family="Open Sans" y="36.5" font-size="25pt" fill="#000000" font-weight="bold" transform="matrix(0.707 0.409 -0.707 0.409 0 0)" xml:space="preserve"><tspan x="8" dy="0">End User</tspan></text><text font-family="Open Sans" y="36.5" font-size="25pt" fill="#000000" font-weight="bold" transform="matrix(0.707 0.409 -0.707 0.409 0 0)" xml:space="preserve"><tspan x="8" dy="0">End User</tspan></text></svg></g></g><g opacity="1"><g id="f389bd00-4f53-47d3-9254-870a2434320f" transform="translate(0 0)"><svg x="-176" y="638" overflow="visible"><text stroke="#ffffff" stroke-width="4" font-family="Open Sans" y="30.799999999999997" font-size="20pt" fill="#000000" font-weight="bold" transform="" xml:space="preserve"><tspan x="8" dy="0">Back-End API (Py/FastAPI)</tspan></text><text font-family="Open Sans" y="30.799999999999997" font-size="20pt" fill="#000000" font-weight="bold" transform="" xml:space="preserve"><tspan x="8" dy="0">Back-End API (Py/FastAPI)</tspan></text></svg></g></g><g opacity="1"><g id="e16973e6-5a83-4786-ba01-b44449854ab4" transform="translate(0 0)"><svg x="-480" y="333" overflow="visible"><text stroke="#ffffff" stroke-width="4" font-family="Open Sans" y="30.799999999999997" font-size="20pt" fill="#000000" font-weight="bold" transform="" xml:space="preserve"><tspan x="8" dy="0">Front-End (React.js)</tspan></text><text font-family="Open Sans" y="30.799999999999997" font-size="20pt" fill="#000000" font-weight="bold" transform="" xml:space="preserve"><tspan x="8" dy="0">Front-End (React.js)</tspan></text></svg></g></g><g opacity="1"><g id="20767e39-29a7-4df3-8ac6-ca5154dccc7c" transform="translate(0 0)"><svg x="0" y="500" overflow="visible"><text stroke="#ffffff" stroke-width="4" font-family="Open Sans" y="36.5" font-size="25pt" fill="#000000" font-weight="bold" transform="matrix(0.707 0.409 -0.707 0.409 0 0)" xml:space="preserve"><tspan x="8" dy="0">Auth</tspan></text><text font-family="Open Sans" y="36.5" font-size="25pt" fill="#000000" font-weight="bold" transform="matrix(0.707 0.409 -0.707 0.409 0 0)" xml:space="preserve"><tspan x="8" dy="0">Auth</tspan></text></svg></g></g><g opacity="1"><g id="d32ce433-d4b3-41de-a279-4180937ea4df" transform="translate(0 0)"><svg x="-256" y="444" overflow="visible"><text stroke="#ffffff" stroke-width="4" font-family="Open Sans" y="36.5" font-size="25pt" fill="#000000" font-weight="bold" transform="matrix(0.707 0.409 -0.707 0.409 0 0)" xml:space="preserve"><tspan x="8" dy="0">API Endpoint</tspan></text><text font-family="Open Sans" y="36.5" font-size="25pt" fill="#000000" font-weight="bold" transform="matrix(0.707 0.409 -0.707 0.409 0 0)" xml:space="preserve"><tspan x="8" dy="0">API Endpoint</tspan></text></svg></g></g><g opacity="1"><g id="b218e283-e5b4-41f2-b51a-fe6b0d072544" transform="translate(0 0)"><svg x="0" y="370" overflow="visible"><text stroke="#ffffff" stroke-width="4" font-family="Open Sans" y="30.799999999999997" font-size="20pt" fill="#000000" font-weight="bold" transform="" xml:space="preserve"><tspan x="8" dy="0">MongoDB</tspan></text><text font-family="Open Sans" y="30.799999999999997" font-size="20pt" fill="#000000" font-weight="bold" transform="" xml:space="preserve"><tspan x="8" dy="0">MongoDB</tspan></text></svg></g></g></g><g></g><g></g><g></g><g></g><g></g><g></g><g></g><g></g></g></svg>